<?xml version="1.0" encoding="utf-8"?>
<!-- Generator: Adobe Illustrator 18.0.0, SVG Export Plug-In . SVG Version: 6.00 Build 0)  -->
<!DOCTYPE svg PUBLIC "-//W3C//DTD SVG 1.1//EN" "http://www.w3.org/Graphics/SVG/1.1/DTD/svg11.dtd">
<svg version="1.1" id="Layer_1" xmlns="http://www.w3.org/2000/svg" xmlns:xlink="http://www.w3.org/1999/xlink" x="0px" y="0px"
	 viewBox="0 0 313.7 64.6" enable-background="new 0 0 313.7 64.6" xml:space="preserve">
<g>
	<g>
		<path fill="#FFFFFF" d="M78.2,43.5V32.9c0-3.7-3-6.8-6.8-6.8L35,26H0.3v37.8H35v-5.7H6V47.7h23.3v-5.7H6V31.7h65
			c0.8,0,1.5,0.5,1.5,1.2v10.6c0,0.6-0.7,1.2-1.5,1.2H40.4v19.2h5.7V50.2c0.4,0.1,0.7,0.1,1.2,0.1h12.9l11.3,13.5h6.7V63L67.6,50.3
			h3.8C75.2,50.3,78.2,47.2,78.2,43.5z"/>
		<path fill="#FFFFFF" d="M114.7,26c3.8,0,6.8,3,6.8,6.8V57c0,3.8-3,6.8-6.8,6.8H90.5c-3.8,0-6.8-3-6.8-6.8V32.8
			c0-3.8,3-6.8,6.8-6.8H114.7z M114.7,58.1c0.6,0,1.2-0.5,1.2-1.2V32.8c0-0.6-0.5-1.2-1.2-1.2H90.5c-0.6,0-1.2,0.5-1.2,1.2V57
			c0,0.6,0.5,1.2,1.2,1.2H114.7z"/>
		<polygon fill="#FFFFFF" points="167.1,26 173.6,26 151.8,63.8 146.1,63.8 124.3,26 130.8,26 148.9,57.4 		"/>
		<path fill="#FFFFFF" d="M178.1,26h5.7v37.8h-5.7V26z"/>
		<path fill="#FFFFFF" d="M225.5,26v5.7h-16.1v32.2h-5.7V31.6h-16.1V26H225.5z"/>
		<path fill="#FFFFFF" d="M307.8,43.5V32.9c0-3.7-3-6.8-6.8-6.8l-45.6,0h-22.2c-3.8,0-6.8,3-6.8,6.8V57c0,3.8,3,6.8,6.8,6.8h24.2
			c3.8,0,6.8-3,6.8-6.8l0-25.3h36.4c0.8,0,1.5,0.5,1.5,1.2v10.6c0,0.6-0.7,1.2-1.5,1.2h-30.6v19.2h5.7V50.2c0.4,0.1,0.7,0.1,1.2,0.1
			h12.9L301,63.8h6.7V63l-10.7-12.7h3.8C304.7,50.3,307.8,47.2,307.8,43.5z M258.5,57c0,0.6-0.5,1.2-1.2,1.2h-24.2
			c-0.6,0-1.2-0.5-1.2-1.2V32.8c0-0.6,0.5-1.2,1.2-1.2h24.2c0.6,0,1.2,0.5,1.2,1.2V57z"/>
	</g>
	<g>
		<path fill="#FFFFFF" d="M0.3,1.1h2.8v15.7h15.6v2.8H0.3V1.1z"/>
		<path fill="#FFFFFF" d="M35.3,1.2c1.8,0,3.3,1.5,3.3,3.3v15.1h-2.8v-6.4H23v6.4h-2.8V4.5c0-1.8,1.5-3.3,3.3-3.3H35.3z M35.9,10.4
			V4.5c0-0.3-0.3-0.6-0.6-0.6H23.6c-0.3,0-0.6,0.3-0.6,0.6v5.9H35.9z"/>
		<path fill="#FFFFFF" d="M80.9,9.7V4.5c0-1.8-1.5-3.3-3.3-3.3H44.9c-1.8,0-3.3,1.5-3.3,3.3v11.8c0,1.8,1.5,3.3,3.3,3.3h15v-2.8h-15
			c-0.3,0-0.6-0.3-0.6-0.6V4.5c0-0.3,0.3-0.6,0.6-0.6h32.5c0.4,0,0.8,0.3,0.8,0.6v5.2c0,0.3-0.4,0.6-0.8,0.6H62.5v9.3h2.8V13
			c0.2,0,0.4,0.1,0.6,0.1h6.3l5.5,6.6h3.3v-0.4L75.7,13h1.9C79.4,13,80.9,11.5,80.9,9.7z"/>
		<path fill="#FFFFFF" d="M100.5,3.9H86.4V9h11.3v2.8H86.4v5.1h14.1v2.8H83.7V1.2h16.9V3.9z"/>
		<path fill="#FFFFFF" d="M121.5,5.6h-2.8V4.5c0-0.3-0.3-0.6-0.6-0.6h-11.8c-0.3,0-0.6,0.3-0.6,0.6v3.9c0,0.3,0.3,0.6,0.6,0.6h11.8
			c1.8,0,3.3,1.5,3.3,3.3v3.9c0,1.8-1.5,3.3-3.3,3.3h-11.8c-1.8,0-3.3-1.5-3.3-3.3v-1.1h2.8v1.1c0,0.3,0.3,0.6,0.6,0.6h11.8
			c0.3,0,0.6-0.3,0.6-0.6v-3.9c0-0.3-0.3-0.6-0.6-0.6h-11.8c-1.8,0-3.3-1.5-3.3-3.3V4.5c0-1.8,1.5-3.3,3.3-3.3h11.8
			c1.8,0,3.3,1.5,3.3,3.3V5.6z"/>
	</g>
	<rect x="124.3" y="7.4" fill="#FFFFFF" width="186.5" height="5.8"/>
</g>
</svg>
